<?xml version="1.0" standalone="no"?>
<!DOCTYPE svg PUBLIC "-//W3C//DTD SVG 20010904//EN"
 "http://www.w3.org/TR/2001/REC-SVG-20010904/DTD/svg10.dtd">
<svg version="1.0" xmlns="http://www.w3.org/2000/svg"
 width="540.000000pt" height="540.000000pt" viewBox="0 0 540.000000 540.000000"
 preserveAspectRatio="xMidYMid meet">
<metadata>
Created by potrace 1.15, written by Peter Selinger 2001-2017
</metadata><g><rect x="0" y="0" width="540" height="540" fill="#ffffff" />
<g transform="translate(0.000000,540.000000) scale(0.100000,-0.100000)"
fill="#020304" stroke="none">
<path d="M520 4355 c0 -525 0 -525 525 -525 525 0 525 0 525 525 0 525 0 525
-525 525 -525 0 -525 0 -525 -525z m900 0 c0 -375 0 -375 -375 -375 -375 0
-375 0 -375 375 0 375 0 375 375 375 375 0 375 0 375 -375z"/>
<path d="M820 4355 c0 -225 0 -225 225 -225 225 0 225 0 225 225 0 225 0 225
-225 225 -225 0 -225 0 -225 -225z"/>
<path d="M1870 4805 c0 -75 0 -75 -75 -75 -75 0 -75 0 -75 -75 0 -75 0 -75 75
-75 75 0 75 0 75 -75 0 -75 0 -75 -75 -75 -75 0 -75 0 -75 -75 0 -75 0 -75
150 -75 150 0 150 0 150 -225 0 -225 0 -225 75 -225 75 0 75 0 75 225 0 225 0
225 75 225 75 0 75 0 75 -75 0 -75 0 -75 75 -75 75 0 75 0 75 -75 0 -75 0 -75
-75 -75 -75 0 -75 0 -75 -225 0 -225 0 -225 75 -225 75 0 75 0 75 -75 0 -75 0
-75 -150 -75 -150 0 -150 0 -150 -75 0 -75 0 -75 -75 -75 -75 0 -75 0 -75 150
0 150 0 150 75 150 75 0 75 0 75 75 0 75 0 75 -375 75 -375 0 -375 0 -375 -75
0 -75 0 -75 150 -75 150 0 150 0 150 -75 0 -75 0 -75 75 -75 75 0 75 0 75
-225 0 -225 0 -225 -75 -225 -75 0 -75 0 -75 -75 0 -75 0 -75 225 -75 225 0
225 0 225 75 0 75 0 75 75 75 75 0 75 0 75 -75 0 -75 0 -75 75 -75 75 0 75 0
75 -75 0 -75 0 -75 -75 -75 -75 0 -75 0 -75 -150 0 -150 0 -150 75 -150 75 0
75 0 75 75 0 75 0 75 75 75 75 0 75 0 75 -75 0 -75 0 -75 75 -75 75 0 75 0 75
75 0 75 0 75 75 75 75 0 75 0 75 150 0 150 0 150 150 150 150 0 150 0 150 -75
0 -75 0 -75 75 -75 75 0 75 0 75 -150 0 -150 0 -150 -75 -150 -75 0 -75 0 -75
75 0 75 0 75 -75 75 -75 0 -75 0 -75 -75 0 -75 0 -75 -75 -75 -75 0 -75 0 -75
-75 0 -75 0 -75 -75 -75 -75 0 -75 0 -75 -75 0 -75 0 -75 -75 -75 -75 0 -75 0
-75 -75 0 -75 0 -75 75 -75 75 0 75 0 75 -75 0 -75 0 -75 -225 -75 -225 0
-225 0 -225 150 0 150 0 150 75 150 75 0 75 0 75 75 0 75 0 75 -225 75 -225 0
-225 0 -225 -150 0 -150 0 -150 -75 -150 -75 0 -75 0 -75 75 0 75 0 75 -75 75
-75 0 -75 0 -75 75 0 75 0 75 -150 75 -150 0 -150 0 -150 75 0 75 0 75 150 75
150 0 150 0 150 150 0 150 0 150 -75 150 -75 0 -75 0 -75 75 0 75 0 75 -150
75 -150 0 -150 0 -150 150 0 150 0 150 75 150 75 0 75 0 75 -75 0 -75 0 -75
75 -75 75 0 75 0 75 75 0 75 0 75 75 75 75 0 75 0 75 75 0 75 0 75 -75 75 -75
0 -75 0 -75 75 0 75 0 75 -150 75 -150 0 -150 0 -150 150 0 150 0 150 -375
150 -375 0 -375 0 -375 -75 0 -75 0 -75 150 -75 150 0 150 0 150 -75 0 -75 0
-75 -75 -75 -75 0 -75 0 -75 -150 0 -150 0 -150 75 -150 75 0 75 0 75 -75 0
-75 0 -75 150 -75 150 0 150 0 150 -75 0 -75 0 -75 75 -75 75 0 75 0 75 -75 0
-75 0 -75 150 -75 150 0 150 0 150 -75 0 -75 0 -75 -75 -75 -75 0 -75 0 -75
-75 0 -75 0 -75 -75 -75 -75 0 -75 0 -75 75 0 75 0 75 -150 75 -150 0 -150 0
-150 75 0 75 0 75 -75 75 -75 0 -75 0 -75 -75 0 -75 0 -75 -75 -75 -75 0 -75
0 -75 -75 0 -75 0 -75 -75 -75 -75 0 -75 0 -75 -300 0 -300 0 -300 75 -300 75
0 75 0 75 300 0 300 0 300 150 300 150 0 150 0 150 -75 0 -75 0 -75 75 -75 75
0 75 0 75 75 0 75 0 75 75 75 75 0 75 0 75 -75 0 -75 0 -75 75 -75 75 0 75 0
75 -75 0 -75 0 -75 -150 -75 -150 0 -150 0 -150 -75 0 -75 0 -75 -75 -75 -75
0 -75 0 -75 75 0 75 0 75 -75 75 -75 0 -75 0 -75 -75 0 -75 0 -75 75 -75 75 0
75 0 75 -75 0 -75 0 -75 75 -75 75 0 75 0 75 75 0 75 0 75 75 75 75 0 75 0 75
-75 0 -75 0 -75 150 -75 150 0 150 0 150 75 0 75 0 75 -75 75 -75 0 -75 0 -75
75 0 75 0 75 150 75 150 0 150 0 150 -75 0 -75 0 -75 75 -75 75 0 75 0 75 -75
0 -75 0 -75 -75 -75 -75 0 -75 0 -75 -150 0 -150 0 -150 150 -150 150 0 150 0
150 -75 0 -75 0 -75 75 -75 75 0 75 0 75 225 0 225 0 225 75 225 75 0 75 0 75
-75 0 -75 0 -75 75 -75 75 0 75 0 75 -75 0 -75 0 -75 -75 -75 -75 0 -75 0 -75
-150 0 -150 0 -150 75 -150 75 0 75 0 75 75 0 75 0 75 75 75 75 0 75 0 75 -75
0 -75 0 -75 150 -75 150 0 150 0 150 -75 0 -75 0 -75 -75 -75 -75 0 -75 0 -75
-75 0 -75 0 -75 -75 -75 -75 0 -75 0 -75 -75 0 -75 0 -75 75 -75 75 0 75 0 75
-75 0 -75 0 -75 225 -75 225 0 225 0 225 75 0 75 0 75 -75 75 -75 0 -75 0 -75
75 0 75 0 75 -75 75 -75 0 -75 0 -75 75 0 75 0 75 225 75 225 0 225 0 225 -75
0 -75 0 -75 75 -75 75 0 75 0 75 -75 0 -75 0 -75 -75 -75 -75 0 -75 0 -75 -75
0 -75 0 -75 75 -75 75 0 75 0 75 75 0 75 0 75 150 75 150 0 150 0 150 -75 0
-75 0 -75 225 -75 225 0 225 0 225 75 0 75 0 75 75 75 75 0 75 0 75 -75 0 -75
0 -75 75 -75 75 0 75 0 75 75 0 75 0 75 75 75 75 0 75 0 75 150 0 150 0 150
75 150 75 0 75 0 75 75 0 75 0 75 -150 75 -150 0 -150 0 -150 75 0 75 0 75
-75 75 -75 0 -75 0 -75 -75 0 -75 0 -75 -75 -75 -75 0 -75 0 -75 150 0 150 0
150 150 150 150 0 150 0 150 75 0 75 0 75 150 75 150 0 150 0 150 150 0 150 0
150 -75 150 -75 0 -75 0 -75 75 0 75 0 75 -75 75 -75 0 -75 0 -75 225 0 225 0
225 75 225 75 0 75 0 75 75 0 75 0 75 -75 75 -75 0 -75 0 -75 75 0 75 0 75
-150 75 -150 0 -150 0 -150 75 0 75 0 75 150 75 150 0 150 0 150 75 0 75 0 75
75 75 75 0 75 0 75 75 0 75 0 75 -75 75 -75 0 -75 0 -75 -75 0 -75 0 -75 -75
-75 -75 0 -75 0 -75 75 0 75 0 75 -75 75 -75 0 -75 0 -75 150 0 150 0 150 75
150 75 0 75 0 75 75 0 75 0 75 -75 75 -75 0 -75 0 -75 -75 0 -75 0 -75 -75
-75 -75 0 -75 0 -75 75 0 75 0 75 -75 75 -75 0 -75 0 -75 -75 0 -75 0 -75 -75
-75 -75 0 -75 0 -75 75 0 75 0 75 -75 75 -75 0 -75 0 -75 300 0 300 0 300 -75
300 -75 0 -75 0 -75 75 0 75 0 75 75 75 75 0 75 0 75 225 0 225 0 225 -375
225 -375 0 -375 0 -375 -75 0 -75 0 -75 -150 -75 -150 0 -150 0 -150 75 0 75
0 75 -75 75 -75 0 -75 0 -75 -75 0 -75 0 -75 -150 -75 -150 0 -150 0 -150 -75
0 -75 0 -75 -75 -75 -75 0 -75 0 -75 150 0 150 0 150 -75 150 -75 0 -75 0 -75
-75z m1200 -150 c0 -75 0 -75 75 -75 75 0 75 0 75 75 0 75 0 75 150 75 150 0
150 0 150 -150 0 -150 0 -150 -75 -150 -75 0 -75 0 -75 -150 0 -150 0 -150 75
-150 75 0 75 0 75 -150 0 -150 0 -150 -75 -150 -75 0 -75 0 -75 -150 0 -150 0
-150 -75 -150 -75 0 -75 0 -75 75 0 75 0 75 -75 75 -75 0 -75 0 -75 -75 0 -75
0 -75 -75 -75 -75 0 -75 0 -75 -75 0 -75 0 -75 150 -75 150 0 150 0 150 -150
0 -150 0 -150 75 -150 75 0 75 0 75 150 0 150 0 150 150 150 150 0 150 0 150
75 0 75 0 75 -75 75 -75 0 -75 0 -75 75 0 75 0 75 75 75 75 0 75 0 75 -75 0
-75 0 -75 75 -75 75 0 75 0 75 -75 0 -75 0 -75 150 -75 150 0 150 0 150 -75 0
-75 0 -75 75 -75 75 0 75 0 75 -150 0 -150 0 -150 -300 -150 -300 0 -300 0
-300 150 0 150 0 150 -75 150 -75 0 -75 0 -75 -300 0 -300 0 -300 -75 -300
-75 0 -75 0 -75 150 0 150 0 150 -75 150 -75 0 -75 0 -75 75 0 75 0 75 -75 75
-75 0 -75 0 -75 -75 0 -75 0 -75 -75 -75 -75 0 -75 0 -75 -75 0 -75 0 -75
-150 -75 -150 0 -150 0 -150 75 0 75 0 75 -150 75 -150 0 -150 0 -150 150 0
150 0 150 75 150 75 0 75 0 75 75 0 75 0 75 150 75 150 0 150 0 150 300 0 300
0 300 75 300 75 0 75 0 75 -150 0 -150 0 -150 75 -150 75 0 75 0 75 150 0 150
0 150 75 150 75 0 75 0 75 -75 0 -75 0 -75 75 -75 75 0 75 0 75 150 0 150 0
150 -150 150 -150 0 -150 0 -150 75 0 75 0 75 -75 75 -75 0 -75 0 -75 -75 0
-75 0 -75 -225 -75 -225 0 -225 0 -225 75 0 75 0 75 -75 75 -75 0 -75 0 -75
150 0 150 0 150 150 150 150 0 150 0 150 -75 0 -75 0 -75 -75 -75 -75 0 -75 0
-75 -75 0 -75 0 -75 150 -75 150 0 150 0 150 75 0 75 0 75 150 75 150 0 150 0
150 75 0 75 0 75 -75 75 -75 0 -75 0 -75 75 0 75 0 75 75 75 75 0 75 0 75 -75z
m-900 -300 c0 -75 0 -75 -75 -75 -75 0 -75 0 -75 75 0 75 0 75 75 75 75 0 75
0 75 -75z m450 -525 c0 -150 0 -150 -75 -150 -75 0 -75 0 -75 150 0 150 0 150
75 150 75 0 75 0 75 -150z m-1650 -525 c0 -75 0 -75 75 -75 75 0 75 0 75 75 0
75 0 75 75 75 75 0 75 0 75 -150 0 -150 0 -150 -225 -150 -225 0 -225 0 -225
150 0 150 0 150 75 150 75 0 75 0 75 -75z m600 -150 c0 -75 0 -75 -75 -75 -75
0 -75 0 -75 75 0 75 0 75 75 75 75 0 75 0 75 -75z m600 -150 c0 -75 0 -75 -75
-75 -75 0 -75 0 -75 75 0 75 0 75 75 75 75 0 75 0 75 -75z m1950 -300 c0 -75
0 -75 -150 -75 -150 0 -150 0 -150 75 0 75 0 75 150 75 150 0 150 0 150 -75z
m-1350 -150 c0 -75 0 -75 -75 -75 -75 0 -75 0 -75 75 0 75 0 75 75 75 75 0 75
0 75 -75z m1800 0 c0 -75 0 -75 -150 -75 -150 0 -150 0 -150 -75 0 -75 0 -75
75 -75 75 0 75 0 75 -150 0 -150 0 -150 75 -150 75 0 75 0 75 -75 0 -75 0 -75
-75 -75 -75 0 -75 0 -75 -75 0 -75 0 -75 -75 -75 -75 0 -75 0 -75 75 0 75 0
75 -150 75 -150 0 -150 0 -150 75 0 75 0 75 150 75 150 0 150 0 150 150 0 150
0 150 -75 150 -75 0 -75 0 -75 75 0 75 0 75 75 75 75 0 75 0 75 75 0 75 0 75
150 75 150 0 150 0 150 -75z m-900 -225 c0 -150 0 -150 75 -150 75 0 75 0 75
-75 0 -75 0 -75 -75 -75 -75 0 -75 0 -75 75 0 75 0 75 -75 75 -75 0 -75 0 -75
-150 0 -150 0 -150 -75 -150 -75 0 -75 0 -75 -75 0 -75 0 -75 75 -75 75 0 75
0 75 -75 0 -75 0 -75 -75 -75 -75 0 -75 0 -75 75 0 75 0 75 -75 75 -75 0 -75
0 -75 75 0 75 0 75 -75 75 -75 0 -75 0 -75 -75 0 -75 0 -75 -75 -75 -75 0 -75
0 -75 -75 0 -75 0 -75 -75 -75 -75 0 -75 0 -75 75 0 75 0 75 75 75 75 0 75 0
75 75 0 75 0 75 -75 75 -75 0 -75 0 -75 75 0 75 0 75 225 75 225 0 225 0 225
-75 0 -75 0 -75 75 -75 75 0 75 0 75 150 0 150 0 150 75 150 75 0 75 0 75 150
0 150 0 150 75 150 75 0 75 0 75 -150z m300 75 c0 -75 0 -75 -75 -75 -75 0
-75 0 -75 75 0 75 0 75 75 75 75 0 75 0 75 -75z m-750 -150 c0 -75 0 -75 -75
-75 -75 0 -75 0 -75 75 0 75 0 75 75 75 75 0 75 0 75 -75z m-1050 -450 c0 -75
0 -75 -75 -75 -75 0 -75 0 -75 -75 0 -75 0 -75 -75 -75 -75 0 -75 0 -75 75 0
75 0 75 75 75 75 0 75 0 75 75 0 75 0 75 75 75 75 0 75 0 75 -75z m1950 -300
c0 -225 0 -225 -225 -225 -225 0 -225 0 -225 225 0 225 0 225 225 225 225 0
225 0 225 -225z m-900 0 c0 -75 0 -75 75 -75 75 0 75 0 75 -75 0 -75 0 -75 75
-75 75 0 75 0 75 -75 0 -75 0 -75 -75 -75 -75 0 -75 0 -75 75 0 75 0 75 -150
75 -150 0 -150 0 -150 -75 0 -75 0 -75 -75 -75 -75 0 -75 0 -75 75 0 75 0 75
75 75 75 0 75 0 75 150 0 150 0 150 75 150 75 0 75 0 75 -75z m-450 -150 c0
-75 0 -75 -75 -75 -75 0 -75 0 -75 75 0 75 0 75 75 75 75 0 75 0 75 -75z
m1500 -300 c0 -75 0 -75 -300 -75 -300 0 -300 0 -300 75 0 75 0 75 300 75 300
0 300 0 300 -75z m-300 -300 c0 -75 0 -75 -75 -75 -75 0 -75 0 -75 75 0 75 0
75 75 75 75 0 75 0 75 -75z m300 0 c0 -75 0 -75 -75 -75 -75 0 -75 0 -75 75 0
75 0 75 75 75 75 0 75 0 75 -75z m300 0 c0 -75 0 -75 -75 -75 -75 0 -75 0 -75
75 0 75 0 75 75 75 75 0 75 0 75 -75z"/>
<path d="M3070 4355 c0 -75 0 -75 75 -75 75 0 75 0 75 75 0 75 0 75 -75 75
-75 0 -75 0 -75 -75z"/>
<path d="M2770 3305 c0 -75 0 -75 -75 -75 -75 0 -75 0 -75 -75 0 -75 0 -75 75
-75 75 0 75 0 75 75 0 75 0 75 75 75 75 0 75 0 75 -75 0 -75 0 -75 75 -75 75
0 75 0 75 75 0 75 0 75 -75 75 -75 0 -75 0 -75 75 0 75 0 75 -75 75 -75 0 -75
0 -75 -75z"/>
<path d="M3820 1505 c0 -75 0 -75 75 -75 75 0 75 0 75 75 0 75 0 75 -75 75
-75 0 -75 0 -75 -75z"/>
<path d="M3820 4355 c0 -525 0 -525 525 -525 525 0 525 0 525 525 0 525 0 525
-525 525 -525 0 -525 0 -525 -525z m900 0 c0 -375 0 -375 -375 -375 -375 0
-375 0 -375 375 0 375 0 375 375 375 375 0 375 0 375 -375z"/>
<path d="M4120 4355 c0 -225 0 -225 225 -225 225 0 225 0 225 225 0 225 0 225
-225 225 -225 0 -225 0 -225 -225z"/>
<path d="M1720 3980 c0 -150 0 -150 75 -150 75 0 75 0 75 150 0 150 0 150 -75
150 -75 0 -75 0 -75 -150z"/>
<path d="M4570 3605 c0 -75 0 -75 75 -75 75 0 75 0 75 -75 0 -75 0 -75 75 -75
75 0 75 0 75 75 0 75 0 75 -75 75 -75 0 -75 0 -75 75 0 75 0 75 -75 75 -75 0
-75 0 -75 -75z"/>
<path d="M520 2855 c0 -75 0 -75 75 -75 75 0 75 0 75 75 0 75 0 75 -75 75 -75
0 -75 0 -75 -75z"/>
<path d="M4720 2855 c0 -75 0 -75 75 -75 75 0 75 0 75 75 0 75 0 75 -75 75
-75 0 -75 0 -75 -75z"/>
<path d="M1870 2555 c0 -75 0 -75 75 -75 75 0 75 0 75 75 0 75 0 75 -75 75
-75 0 -75 0 -75 -75z"/>
<path d="M4720 2255 c0 -75 0 -75 75 -75 75 0 75 0 75 75 0 75 0 75 -75 75
-75 0 -75 0 -75 -75z"/>
<path d="M520 1055 c0 -525 0 -525 525 -525 525 0 525 0 525 525 0 525 0 525
-525 525 -525 0 -525 0 -525 -525z m900 0 c0 -375 0 -375 -375 -375 -375 0
-375 0 -375 375 0 375 0 375 375 375 375 0 375 0 375 -375z"/>
<path d="M820 1055 c0 -225 0 -225 225 -225 225 0 225 0 225 225 0 225 0 225
-225 225 -225 0 -225 0 -225 -225z"/>
<path d="M4720 1355 c0 -75 0 -75 75 -75 75 0 75 0 75 75 0 75 0 75 -75 75
-75 0 -75 0 -75 -75z"/>
<path d="M1720 905 c0 -375 0 -375 300 -375 300 0 300 0 300 150 0 150 0 150
75 150 75 0 75 0 75 75 0 75 0 75 -225 75 -225 0 -225 0 -225 75 0 75 0 75
-75 75 -75 0 -75 0 -75 75 0 75 0 75 -75 75 -75 0 -75 0 -75 -375z m300 0 c0
-75 0 -75 75 -75 75 0 75 0 75 -75 0 -75 0 -75 -150 -75 -150 0 -150 0 -150
150 0 150 0 150 75 150 75 0 75 0 75 -75z"/>
</g>
</g></svg>
