<?xml version="1.0" standalone="no"?>
<!DOCTYPE svg PUBLIC "-//W3C//DTD SVG 20010904//EN"
 "http://www.w3.org/TR/2001/REC-SVG-20010904/DTD/svg10.dtd">
<svg version="1.0" xmlns="http://www.w3.org/2000/svg"
 width="540.000000pt" height="540.000000pt" viewBox="0 0 540.000000 540.000000"
 preserveAspectRatio="xMidYMid meet">
<metadata>
Created by potrace 1.15, written by Peter Selinger 2001-2017
</metadata><g><rect x="0" y="0" width="540" height="540" fill="#ffffff" />
<g transform="translate(0.000000,540.000000) scale(0.100000,-0.100000)"
fill="#020304" stroke="none">
<path d="M520 4355 c0 -525 0 -525 525 -525 525 0 525 0 525 525 0 525 0 525
-525 525 -525 0 -525 0 -525 -525z m900 0 c0 -375 0 -375 -375 -375 -375 0
-375 0 -375 375 0 375 0 375 375 375 375 0 375 0 375 -375z"/>
<path d="M820 4355 c0 -225 0 -225 225 -225 225 0 225 0 225 225 0 225 0 225
-225 225 -225 0 -225 0 -225 -225z"/>
<path d="M1720 4805 c0 -75 0 -75 75 -75 75 0 75 0 75 -75 0 -75 0 -75 -75
-75 -75 0 -75 0 -75 -225 0 -225 0 -225 75 -225 75 0 75 0 75 75 0 75 0 75
150 75 150 0 150 0 150 -75 0 -75 0 -75 -75 -75 -75 0 -75 0 -75 -375 0 -375
0 -375 -75 -375 -75 0 -75 0 -75 -75 0 -75 0 -75 -75 -75 -75 0 -75 0 -75 75
0 75 0 75 -150 75 -150 0 -150 0 -150 -75 0 -75 0 -75 -75 -75 -75 0 -75 0
-75 150 0 150 0 150 -75 150 -75 0 -75 0 -75 75 0 75 0 75 -300 75 -300 0
-300 0 -300 -75 0 -75 0 -75 75 -75 75 0 75 0 75 -75 0 -75 0 -75 -75 -75 -75
0 -75 0 -75 -300 0 -300 0 -300 75 -300 75 0 75 0 75 -150 0 -150 0 -150 -75
-150 -75 0 -75 0 -75 -75 0 -75 0 -75 75 -75 75 0 75 0 75 75 0 75 0 75 75 75
75 0 75 0 75 -75 0 -75 0 -75 75 -75 75 0 75 0 75 -75 0 -75 0 -75 75 -75 75
0 75 0 75 -150 0 -150 0 -150 -75 -150 -75 0 -75 0 -75 75 0 75 0 75 -75 75
-75 0 -75 0 -75 -75 0 -75 0 -75 -75 -75 -75 0 -75 0 -75 -75 0 -75 0 -75 300
-75 300 0 300 0 300 150 0 150 0 150 225 150 225 0 225 0 225 -75 0 -75 0 -75
-150 -75 -150 0 -150 0 -150 -75 0 -75 0 -75 150 -75 150 0 150 0 150 -75 0
-75 0 -75 75 -75 75 0 75 0 75 75 0 75 0 75 -75 75 -75 0 -75 0 -75 75 0 75 0
75 75 75 75 0 75 0 75 150 0 150 0 150 -375 150 -375 0 -375 0 -375 75 0 75 0
75 450 75 450 0 450 0 450 -300 0 -300 0 -300 75 -300 75 0 75 0 75 75 0 75 0
75 75 75 75 0 75 0 75 75 0 75 0 75 -75 75 -75 0 -75 0 -75 150 0 150 0 150
-75 150 -75 0 -75 0 -75 75 0 75 0 75 -75 75 -75 0 -75 0 -75 75 0 75 0 75
-75 75 -75 0 -75 0 -75 -75 0 -75 0 -75 -300 -75 -300 0 -300 0 -300 -75 0
-75 0 -75 -75 -75 -75 0 -75 0 -75 75 0 75 0 75 -75 75 -75 0 -75 0 -75 75 0
75 0 75 150 75 150 0 150 0 150 75 0 75 0 75 150 75 150 0 150 0 150 -75 0
-75 0 -75 75 -75 75 0 75 0 75 75 0 75 0 75 75 75 75 0 75 0 75 75 0 75 0 75
75 75 75 0 75 0 75 -75 0 -75 0 -75 75 -75 75 0 75 0 75 75 0 75 0 75 75 75
75 0 75 0 75 -225 0 -225 0 -225 75 -225 75 0 75 0 75 -75 0 -75 0 -75 75 -75
75 0 75 0 75 75 0 75 0 75 -75 75 -75 0 -75 0 -75 150 0 150 0 150 150 150
150 0 150 0 150 -225 0 -225 0 -225 75 -225 75 0 75 0 75 -75 0 -75 0 -75
-150 -75 -150 0 -150 0 -150 -225 0 -225 0 -225 225 -225 225 0 225 0 225
-150 0 -150 0 -150 -75 -150 -75 0 -75 0 -75 75 0 75 0 75 -75 75 -75 0 -75 0
-75 -75 0 -75 0 -75 -225 -75 -225 0 -225 0 -225 75 0 75 0 75 -75 75 -75 0
-75 0 -75 -75 0 -75 0 -75 75 -75 75 0 75 0 75 -150 0 -150 0 -150 -225 -150
-225 0 -225 0 -225 -300 0 -300 0 -300 75 -300 75 0 75 0 75 225 0 225 0 225
75 225 75 0 75 0 75 -150 0 -150 0 -150 75 -150 75 0 75 0 75 -75 0 -75 0 -75
75 -75 75 0 75 0 75 75 0 75 0 75 150 75 150 0 150 0 150 75 0 75 0 75 75 75
75 0 75 0 75 75 0 75 0 75 150 75 150 0 150 0 150 75 0 75 0 75 75 75 75 0 75
0 75 75 0 75 0 75 75 75 75 0 75 0 75 75 0 75 0 75 75 75 75 0 75 0 75 -150 0
-150 0 -150 -75 -150 -75 0 -75 0 -75 -75 0 -75 0 -75 -75 -75 -75 0 -75 0
-75 -75 0 -75 0 -75 150 -75 150 0 150 0 150 -75 0 -75 0 -75 -150 -75 -150 0
-150 0 -150 -75 0 -75 0 -75 225 -75 225 0 225 0 225 150 0 150 0 150 75 150
75 0 75 0 75 150 0 150 0 150 150 150 150 0 150 0 150 -75 0 -75 0 -75 -75
-75 -75 0 -75 0 -75 -150 0 -150 0 -150 75 -150 75 0 75 0 75 150 0 150 0 150
150 150 150 0 150 0 150 -75 0 -75 0 -75 -75 -75 -75 0 -75 0 -75 -150 0 -150
0 -150 75 -150 75 0 75 0 75 150 0 150 0 150 75 150 75 0 75 0 75 -150 0 -150
0 -150 75 -150 75 0 75 0 75 150 0 150 0 150 75 150 75 0 75 0 75 300 0 300 0
300 -75 300 -75 0 -75 0 -75 75 0 75 0 75 75 75 75 0 75 0 75 75 0 75 0 75
-150 75 -150 0 -150 0 -150 225 0 225 0 225 75 225 75 0 75 0 75 225 0 225 0
225 75 225 75 0 75 0 75 150 0 150 0 150 -150 150 -150 0 -150 0 -150 75 0 75
0 75 -150 75 -150 0 -150 0 -150 225 0 225 0 225 150 225 150 0 150 0 150 75
0 75 0 75 -225 75 -225 0 -225 0 -225 -75 0 -75 0 -75 -150 -75 -150 0 -150 0
-150 75 0 75 0 75 -75 75 -75 0 -75 0 -75 -75 0 -75 0 -75 -150 -75 -150 0
-150 0 -150 225 0 225 0 225 75 225 75 0 75 0 75 -75 0 -75 0 -75 75 -75 75 0
75 0 75 225 0 225 0 225 -75 225 -75 0 -75 0 -75 75 0 75 0 75 75 75 75 0 75
0 75 225 0 225 0 225 -225 225 -225 0 -225 0 -225 -75 0 -75 0 -75 150 -75
150 0 150 0 150 -150 0 -150 0 -150 -75 -150 -75 0 -75 0 -75 75 0 75 0 75
-75 75 -75 0 -75 0 -75 -75 0 -75 0 -75 -225 -75 -225 0 -225 0 -225 75 0 75
0 75 -150 75 -150 0 -150 0 -150 150 0 150 0 150 -75 150 -75 0 -75 0 -75 -75
0 -75 0 -75 -75 -75 -75 0 -75 0 -75 75 0 75 0 75 -75 75 -75 0 -75 0 -75 -75
0 -75 0 -75 -75 -75 -75 0 -75 0 -75 75 0 75 0 75 -75 75 -75 0 -75 0 -75 -75z
m750 -300 c0 -75 0 -75 -75 -75 -75 0 -75 0 -75 -75 0 -75 0 -75 -75 -75 -75
0 -75 0 -75 150 0 150 0 150 150 150 150 0 150 0 150 -75z m900 -225 c0 -150
0 -150 -150 -150 -150 0 -150 0 -150 -75 0 -75 0 -75 75 -75 75 0 75 0 75 -75
0 -75 0 -75 -75 -75 -75 0 -75 0 -75 -75 0 -75 0 -75 -225 -75 -225 0 -225 0
-225 -75 0 -75 0 -75 150 -75 150 0 150 0 150 -75 0 -75 0 -75 75 -75 75 0 75
0 75 -75 0 -75 0 -75 75 -75 75 0 75 0 75 -75 0 -75 0 -75 -75 -75 -75 0 -75
0 -75 -75 0 -75 0 -75 150 -75 150 0 150 0 150 75 0 75 0 75 75 75 75 0 75 0
75 75 0 75 0 75 -75 75 -75 0 -75 0 -75 75 0 75 0 75 225 75 225 0 225 0 225
-75 0 -75 0 -75 -75 -75 -75 0 -75 0 -75 -75 0 -75 0 -75 300 -75 300 0 300 0
300 -75 0 -75 0 -75 75 -75 75 0 75 0 75 -150 0 -150 0 -150 75 -150 75 0 75
0 75 -150 0 -150 0 -150 -75 -150 -75 0 -75 0 -75 75 0 75 0 75 -75 75 -75 0
-75 0 -75 150 0 150 0 150 -75 150 -75 0 -75 0 -75 75 0 75 0 75 -150 75 -150
0 -150 0 -150 -75 0 -75 0 -75 75 -75 75 0 75 0 75 -75 0 -75 0 -75 -75 -75
-75 0 -75 0 -75 75 0 75 0 75 -75 75 -75 0 -75 0 -75 -225 0 -225 0 -225 -75
-225 -75 0 -75 0 -75 -150 0 -150 0 -150 75 -150 75 0 75 0 75 -75 0 -75 0
-75 -75 -75 -75 0 -75 0 -75 75 0 75 0 75 -75 75 -75 0 -75 0 -75 -75 0 -75 0
-75 -75 -75 -75 0 -75 0 -75 75 0 75 0 75 -75 75 -75 0 -75 0 -75 -75 0 -75 0
-75 -150 -75 -150 0 -150 0 -150 75 0 75 0 75 75 75 75 0 75 0 75 300 0 300 0
300 -75 300 -75 0 -75 0 -75 75 0 75 0 75 150 75 150 0 150 0 150 75 0 75 0
75 -75 75 -75 0 -75 0 -75 75 0 75 0 75 75 75 75 0 75 0 75 75 0 75 0 75 -150
75 -150 0 -150 0 -150 -150 0 -150 0 -150 -75 -150 -75 0 -75 0 -75 150 0 150
0 150 -75 150 -75 0 -75 0 -75 -75 0 -75 0 -75 -75 -75 -75 0 -75 0 -75 -75 0
-75 0 -75 -75 -75 -75 0 -75 0 -75 150 0 150 0 150 150 150 150 0 150 0 150
75 0 75 0 75 75 75 75 0 75 0 75 75 0 75 0 75 -75 75 -75 0 -75 0 -75 225 0
225 0 225 -75 225 -75 0 -75 0 -75 -150 0 -150 0 -150 -75 -150 -75 0 -75 0
-75 150 0 150 0 150 75 150 75 0 75 0 75 75 0 75 0 75 75 75 75 0 75 0 75 75
0 75 0 75 75 75 75 0 75 0 75 -75 0 -75 0 -75 225 -75 225 0 225 0 225 75 0
75 0 75 75 75 75 0 75 0 75 75 0 75 0 75 75 75 75 0 75 0 75 -150z m-2400
-825 c0 -75 0 -75 75 -75 75 0 75 0 75 -75 0 -75 0 -75 75 -75 75 0 75 0 75
-75 0 -75 0 -75 75 -75 75 0 75 0 75 75 0 75 0 75 150 75 150 0 150 0 150
-150 0 -150 0 -150 -75 -150 -75 0 -75 0 -75 -75 0 -75 0 -75 -75 -75 -75 0
-75 0 -75 75 0 75 0 75 -225 75 -225 0 -225 0 -225 -75 0 -75 0 -75 -150 -75
-150 0 -150 0 -150 75 0 75 0 75 75 75 75 0 75 0 75 75 0 75 0 75 -75 75 -75
0 -75 0 -75 75 0 75 0 75 75 75 75 0 75 0 75 150 0 150 0 150 75 150 75 0 75
0 75 -75z m1350 0 c0 -75 0 -75 -75 -75 -75 0 -75 0 -75 75 0 75 0 75 75 75
75 0 75 0 75 -75z m1800 -1050 c0 -75 0 -75 75 -75 75 0 75 0 75 -75 0 -75 0
-75 75 -75 75 0 75 0 75 -150 0 -150 0 -150 -225 -150 -225 0 -225 0 -225 75
0 75 0 75 -75 75 -75 0 -75 0 -75 225 0 225 0 225 150 225 150 0 150 0 150
-75z m-600 -750 c0 -75 0 -75 -75 -75 -75 0 -75 0 -75 75 0 75 0 75 75 75 75
0 75 0 75 -75z m600 -150 c0 -225 0 -225 -225 -225 -225 0 -225 0 -225 225 0
225 0 225 225 225 225 0 225 0 225 -225z m-900 -75 c0 -150 0 -150 -75 -150
-75 0 -75 0 -75 150 0 150 0 150 75 150 75 0 75 0 75 -150z m1350 75 c0 -75 0
-75 75 -75 75 0 75 0 75 -75 0 -75 0 -75 -150 -75 -150 0 -150 0 -150 -75 0
-75 0 -75 150 -75 150 0 150 0 150 -150 0 -150 0 -150 -75 -150 -75 0 -75 0
-75 75 0 75 0 75 -75 75 -75 0 -75 0 -75 75 0 75 0 75 -75 75 -75 0 -75 0 -75
75 0 75 0 75 75 75 75 0 75 0 75 150 0 150 0 150 75 150 75 0 75 0 75 -75z
m-1800 -375 c0 -150 0 -150 -75 -150 -75 0 -75 0 -75 -75 0 -75 0 -75 -75 -75
-75 0 -75 0 -75 75 0 75 0 75 -75 75 -75 0 -75 0 -75 -150 0 -150 0 -150 -75
-150 -75 0 -75 0 -75 150 0 150 0 150 75 150 75 0 75 0 75 150 0 150 0 150
225 150 225 0 225 0 225 -150z m900 -225 c0 -75 0 -75 -75 -75 -75 0 -75 0
-75 75 0 75 0 75 75 75 75 0 75 0 75 -75z"/>
<path d="M2620 3905 c0 -75 0 -75 75 -75 75 0 75 0 75 75 0 75 0 75 -75 75
-75 0 -75 0 -75 -75z"/>
<path d="M2920 3905 c0 -75 0 -75 75 -75 75 0 75 0 75 75 0 75 0 75 -75 75
-75 0 -75 0 -75 -75z"/>
<path d="M2620 3305 c0 -75 0 -75 75 -75 75 0 75 0 75 75 0 75 0 75 -75 75
-75 0 -75 0 -75 -75z"/>
<path d="M3370 2855 c0 -75 0 -75 -150 -75 -150 0 -150 0 -150 -75 0 -75 0
-75 150 -75 150 0 150 0 150 -75 0 -75 0 -75 -75 -75 -75 0 -75 0 -75 -150 0
-150 0 -150 75 -150 75 0 75 0 75 150 0 150 0 150 75 150 75 0 75 0 75 225 0
225 0 225 -75 225 -75 0 -75 0 -75 -75z"/>
<path d="M820 3155 c0 -75 0 -75 75 -75 75 0 75 0 75 75 0 75 0 75 -75 75 -75
0 -75 0 -75 -75z"/>
<path d="M1420 3005 c0 -75 0 -75 75 -75 75 0 75 0 75 75 0 75 0 75 -75 75
-75 0 -75 0 -75 -75z"/>
<path d="M3970 2180 c0 -150 0 -150 75 -150 75 0 75 0 75 150 0 150 0 150 -75
150 -75 0 -75 0 -75 -150z"/>
<path d="M3820 1505 c0 -75 0 -75 75 -75 75 0 75 0 75 75 0 75 0 75 -75 75
-75 0 -75 0 -75 -75z"/>
<path d="M2470 1055 c0 -75 0 -75 75 -75 75 0 75 0 75 75 0 75 0 75 -75 75
-75 0 -75 0 -75 -75z"/>
<path d="M2920 4805 c0 -75 0 -75 75 -75 75 0 75 0 75 75 0 75 0 75 -75 75
-75 0 -75 0 -75 -75z"/>
<path d="M3820 4355 c0 -525 0 -525 525 -525 525 0 525 0 525 525 0 525 0 525
-525 525 -525 0 -525 0 -525 -525z m900 0 c0 -375 0 -375 -375 -375 -375 0
-375 0 -375 375 0 375 0 375 375 375 375 0 375 0 375 -375z"/>
<path d="M4120 4355 c0 -225 0 -225 225 -225 225 0 225 0 225 225 0 225 0 225
-225 225 -225 0 -225 0 -225 -225z"/>
<path d="M1720 3905 c0 -75 0 -75 75 -75 75 0 75 0 75 75 0 75 0 75 -75 75
-75 0 -75 0 -75 -75z"/>
<path d="M1420 3605 c0 -75 0 -75 75 -75 75 0 75 0 75 75 0 75 0 75 -75 75
-75 0 -75 0 -75 -75z"/>
<path d="M1720 3605 c0 -75 0 -75 75 -75 75 0 75 0 75 75 0 75 0 75 -75 75
-75 0 -75 0 -75 -75z"/>
<path d="M4720 3530 c0 -150 0 -150 -150 -150 -150 0 -150 0 -150 -75 0 -75 0
-75 150 -75 150 0 150 0 150 -75 0 -75 0 -75 75 -75 75 0 75 0 75 75 0 75 0
75 -75 75 -75 0 -75 0 -75 75 0 75 0 75 75 75 75 0 75 0 75 150 0 150 0 150
-75 150 -75 0 -75 0 -75 -150z"/>
<path d="M520 2105 c0 -75 0 -75 75 -75 75 0 75 0 75 75 0 75 0 75 -75 75 -75
0 -75 0 -75 -75z"/>
<path d="M520 1055 c0 -525 0 -525 525 -525 525 0 525 0 525 525 0 525 0 525
-525 525 -525 0 -525 0 -525 -525z m900 0 c0 -375 0 -375 -375 -375 -375 0
-375 0 -375 375 0 375 0 375 375 375 375 0 375 0 375 -375z"/>
<path d="M820 1055 c0 -225 0 -225 225 -225 225 0 225 0 225 225 0 225 0 225
-225 225 -225 0 -225 0 -225 -225z"/>
<path d="M2920 755 c0 -75 0 -75 -75 -75 -75 0 -75 0 -75 -75 0 -75 0 -75 75
-75 75 0 75 0 75 75 0 75 0 75 75 75 75 0 75 0 75 75 0 75 0 75 -75 75 -75 0
-75 0 -75 -75z"/>
</g>
</g></svg>
