<?xml version="1.0" standalone="no"?>
<!DOCTYPE svg PUBLIC "-//W3C//DTD SVG 20010904//EN"
 "http://www.w3.org/TR/2001/REC-SVG-20010904/DTD/svg10.dtd">
<svg version="1.0" xmlns="http://www.w3.org/2000/svg"
 width="540.000000pt" height="540.000000pt" viewBox="0 0 540.000000 540.000000"
 preserveAspectRatio="xMidYMid meet">
<metadata>
Created by potrace 1.15, written by Peter Selinger 2001-2017
</metadata><g><rect x="0" y="0" width="540" height="540" fill="#ffffff" />
<g transform="translate(0.000000,540.000000) scale(0.100000,-0.100000)"
fill="#020304" stroke="none">
<path d="M520 4355 c0 -525 0 -525 525 -525 525 0 525 0 525 525 0 525 0 525
-525 525 -525 0 -525 0 -525 -525z m900 0 c0 -375 0 -375 -375 -375 -375 0
-375 0 -375 375 0 375 0 375 375 375 375 0 375 0 375 -375z"/>
<path d="M820 4355 c0 -225 0 -225 225 -225 225 0 225 0 225 225 0 225 0 225
-225 225 -225 0 -225 0 -225 -225z"/>
<path d="M1720 4805 c0 -75 0 -75 150 -75 150 0 150 0 150 75 0 75 0 75 -150
75 -150 0 -150 0 -150 -75z"/>
<path d="M2770 4805 c0 -75 0 -75 -75 -75 -75 0 -75 0 -75 -75 0 -75 0 -75
-225 -75 -225 0 -225 0 -225 -150 0 -150 0 -150 -75 -150 -75 0 -75 0 -75 75
0 75 0 75 -75 75 -75 0 -75 0 -75 75 0 75 0 75 -75 75 -75 0 -75 0 -75 -225 0
-225 0 -225 75 -225 75 0 75 0 75 -75 0 -75 0 -75 -75 -75 -75 0 -75 0 -75
-75 0 -75 0 -75 75 -75 75 0 75 0 75 -75 0 -75 0 -75 -75 -75 -75 0 -75 0 -75
-150 0 -150 0 -150 150 -150 150 0 150 0 150 75 0 75 0 75 -75 75 -75 0 -75 0
-75 75 0 75 0 75 75 75 75 0 75 0 75 75 0 75 0 75 75 75 75 0 75 0 75 -75 0
-75 0 -75 75 -75 75 0 75 0 75 75 0 75 0 75 75 75 75 0 75 0 75 -150 0 -150 0
-150 150 -150 150 0 150 0 150 -75 0 -75 0 -75 -75 -75 -75 0 -75 0 -75 -75 0
-75 0 -75 -225 -75 -225 0 -225 0 -225 -150 0 -150 0 -150 -75 -150 -75 0 -75
0 -75 75 0 75 0 75 -75 75 -75 0 -75 0 -75 75 0 75 0 75 -150 75 -150 0 -150
0 -150 75 0 75 0 75 -75 75 -75 0 -75 0 -75 -75 0 -75 0 -75 75 -75 75 0 75 0
75 -75 0 -75 0 -75 -75 -75 -75 0 -75 0 -75 -75 0 -75 0 -75 75 -75 75 0 75 0
75 75 0 75 0 75 75 75 75 0 75 0 75 -150 0 -150 0 -150 -150 -150 -150 0 -150
0 -150 -75 0 -75 0 -75 150 -75 150 0 150 0 150 -75 0 -75 0 -75 75 -75 75 0
75 0 75 -75 0 -75 0 -75 -75 -75 -75 0 -75 0 -75 -75 0 -75 0 -75 -150 -75
-150 0 -150 0 -150 75 0 75 0 75 75 75 75 0 75 0 75 75 0 75 0 75 -150 75
-150 0 -150 0 -150 525 0 525 0 525 -75 525 -75 0 -75 0 -75 75 0 75 0 75
-300 75 -300 0 -300 0 -300 -375 0 -375 0 -375 150 -375 150 0 150 0 150 150
0 150 0 150 -75 150 -75 0 -75 0 -75 150 0 150 0 150 75 150 75 0 75 0 75 -75
0 -75 0 -75 150 -75 150 0 150 0 150 -75 0 -75 0 -75 -75 -75 -75 0 -75 0 -75
-75 0 -75 0 -75 75 -75 75 0 75 0 75 -75 0 -75 0 -75 -75 -75 -75 0 -75 0 -75
-75 0 -75 0 -75 -225 -75 -225 0 -225 0 -225 -150 0 -150 0 -150 75 -150 75 0
75 0 75 -75 0 -75 0 -75 75 -75 75 0 75 0 75 75 0 75 0 75 -75 75 -75 0 -75 0
-75 75 0 75 0 75 150 75 150 0 150 0 150 -225 0 -225 0 -225 -75 -225 -75 0
-75 0 -75 -150 0 -150 0 -150 -75 -150 -75 0 -75 0 -75 -75 0 -75 0 -75 150
-75 150 0 150 0 150 75 0 75 0 75 150 75 150 0 150 0 150 -75 0 -75 0 -75 150
-75 150 0 150 0 150 75 0 75 0 75 -150 75 -150 0 -150 0 -150 150 0 150 0 150
75 150 75 0 75 0 75 -75 0 -75 0 -75 150 -75 150 0 150 0 150 75 0 75 0 75
150 75 150 0 150 0 150 150 0 150 0 150 -75 150 -75 0 -75 0 -75 225 0 225 0
225 75 225 75 0 75 0 75 -75 0 -75 0 -75 150 -75 150 0 150 0 150 -150 0 -150
0 -150 -75 -150 -75 0 -75 0 -75 -75 0 -75 0 -75 75 -75 75 0 75 0 75 -75 0
-75 0 -75 -75 -75 -75 0 -75 0 -75 -75 0 -75 0 -75 75 -75 75 0 75 0 75 -75 0
-75 0 -75 -75 -75 -75 0 -75 0 -75 -75 0 -75 0 -75 75 -75 75 0 75 0 75 -75 0
-75 0 -75 -150 -75 -150 0 -150 0 -150 -75 0 -75 0 -75 300 -75 300 0 300 0
300 75 0 75 0 75 75 75 75 0 75 0 75 75 0 75 0 75 -75 75 -75 0 -75 0 -75 75
0 75 0 75 -75 75 -75 0 -75 0 -75 150 0 150 0 150 75 150 75 0 75 0 75 75 0
75 0 75 -150 75 -150 0 -150 0 -150 75 0 75 0 75 150 75 150 0 150 0 150 75 0
75 0 75 75 75 75 0 75 0 75 -375 0 -375 0 -375 75 -375 75 0 75 0 75 -225 0
-225 0 -225 75 -225 75 0 75 0 75 150 0 150 0 150 75 150 75 0 75 0 75 -75 0
-75 0 -75 75 -75 75 0 75 0 75 -75 0 -75 0 -75 75 -75 75 0 75 0 75 -150 0
-150 0 -150 -75 -150 -75 0 -75 0 -75 -150 0 -150 0 -150 75 -150 75 0 75 0
75 -75 0 -75 0 -75 -225 -75 -225 0 -225 0 -225 225 0 225 0 225 75 225 75 0
75 0 75 75 0 75 0 75 -75 75 -75 0 -75 0 -75 -75 0 -75 0 -75 -75 -75 -75 0
-75 0 -75 75 0 75 0 75 -150 75 -150 0 -150 0 -150 -150 0 -150 0 -150 -75
-150 -75 0 -75 0 -75 150 0 150 0 150 -75 150 -75 0 -75 0 -75 -75 0 -75 0
-75 -150 -75 -150 0 -150 0 -150 75 0 75 0 75 -75 75 -75 0 -75 0 -75 -75 0
-75 0 -75 -75 -75 -75 0 -75 0 -75 -300 0 -300 0 -300 75 -300 75 0 75 0 75
75 0 75 0 75 75 75 75 0 75 0 75 75 0 75 0 75 75 75 75 0 75 0 75 -75 0 -75 0
-75 75 -75 75 0 75 0 75 -75 0 -75 0 -75 75 -75 75 0 75 0 75 75 0 75 0 75
-75 75 -75 0 -75 0 -75 150 0 150 0 150 75 150 75 0 75 0 75 -75 0 -75 0 -75
75 -75 75 0 75 0 75 -150 0 -150 0 -150 75 -150 75 0 75 0 75 75 0 75 0 75 75
75 75 0 75 0 75 -75 0 -75 0 -75 375 -75 375 0 375 0 375 150 0 150 0 150 -75
150 -75 0 -75 0 -75 150 0 150 0 150 300 150 300 0 300 0 300 -75 0 -75 0 -75
-75 -75 -75 0 -75 0 -75 -75 0 -75 0 -75 -75 -75 -75 0 -75 0 -75 -150 0 -150
0 -150 75 -150 75 0 75 0 75 150 0 150 0 150 75 150 75 0 75 0 75 -75 0 -75 0
-75 75 -75 75 0 75 0 75 -75 0 -75 0 -75 75 -75 75 0 75 0 75 150 0 150 0 150
75 150 75 0 75 0 75 -150 0 -150 0 -150 75 -150 75 0 75 0 75 150 0 150 0 150
75 150 75 0 75 0 75 150 0 150 0 150 -75 150 -75 0 -75 0 -75 75 0 75 0 75 75
75 75 0 75 0 75 75 0 75 0 75 -75 75 -75 0 -75 0 -75 75 0 75 0 75 75 75 75 0
75 0 75 75 0 75 0 75 -150 75 -150 0 -150 0 -150 225 0 225 0 225 75 225 75 0
75 0 75 225 0 225 0 225 75 225 75 0 75 0 75 150 0 150 0 150 -150 150 -150 0
-150 0 -150 75 0 75 0 75 -150 75 -150 0 -150 0 -150 -75 0 -75 0 -75 75 -75
75 0 75 0 75 -150 0 -150 0 -150 75 -150 75 0 75 0 75 -150 0 -150 0 -150 -75
-150 -75 0 -75 0 -75 75 0 75 0 75 -225 75 -225 0 -225 0 -225 -225 0 -225 0
-225 -75 -225 -75 0 -75 0 -75 225 0 225 0 225 -75 225 -75 0 -75 0 -75 75 0
75 0 75 225 75 225 0 225 0 225 75 0 75 0 75 -75 75 -75 0 -75 0 -75 75 0 75
0 75 75 75 75 0 75 0 75 225 0 225 0 225 75 225 75 0 75 0 75 75 0 75 0 75
150 75 150 0 150 0 150 75 0 75 0 75 -225 75 -225 0 -225 0 -225 -75 0 -75 0
-75 -150 -75 -150 0 -150 0 -150 75 0 75 0 75 -225 75 -225 0 -225 0 -225 150
0 150 0 150 75 150 75 0 75 0 75 -75 0 -75 0 -75 75 -75 75 0 75 0 75 75 0 75
0 75 -75 75 -75 0 -75 0 -75 225 0 225 0 225 75 225 75 0 75 0 75 75 0 75 0
75 -75 75 -75 0 -75 0 -75 -75 0 -75 0 -75 -75 -75 -75 0 -75 0 -75 150 0 150
0 150 150 150 150 0 150 0 150 75 0 75 0 75 -450 75 -450 0 -450 0 -450 -75z
m300 -150 c0 -75 0 -75 75 -75 75 0 75 0 75 -75 0 -75 0 -75 75 -75 75 0 75 0
75 -150 0 -150 0 -150 -150 -150 -150 0 -150 0 -150 -75 0 -75 0 -75 75 -75
75 0 75 0 75 -75 0 -75 0 -75 -75 -75 -75 0 -75 0 -75 -75 0 -75 0 -75 -75
-75 -75 0 -75 0 -75 -75 0 -75 0 -75 -75 -75 -75 0 -75 0 -75 300 0 300 0 300
-75 300 -75 0 -75 0 -75 -150 0 -150 0 -150 -75 -150 -75 0 -75 0 -75 150 0
150 0 150 -75 150 -75 0 -75 0 -75 -150 0 -150 0 -150 -75 -150 -75 0 -75 0
-75 75 0 75 0 75 -75 75 -75 0 -75 0 -75 -75 0 -75 0 -75 -75 -75 -75 0 -75 0
-75 75 0 75 0 75 75 75 75 0 75 0 75 75 0 75 0 75 150 75 150 0 150 0 150 150
0 150 0 150 300 150 300 0 300 0 300 150 0 150 0 150 75 150 75 0 75 0 75 -75z
m450 -1200 c0 -75 0 -75 75 -75 75 0 75 0 75 75 0 75 0 75 75 75 75 0 75 0 75
-75 0 -75 0 -75 75 -75 75 0 75 0 75 -75 0 -75 0 -75 -75 -75 -75 0 -75 0 -75
-75 0 -75 0 -75 75 -75 75 0 75 0 75 -75 0 -75 0 -75 -75 -75 -75 0 -75 0 -75
-75 0 -75 0 -75 -75 -75 -75 0 -75 0 -75 75 0 75 0 75 -75 75 -75 0 -75 0 -75
75 0 75 0 75 -75 75 -75 0 -75 0 -75 -225 0 -225 0 -225 75 -225 75 0 75 0 75
-75 0 -75 0 -75 -75 -75 -75 0 -75 0 -75 75 0 75 0 75 -75 75 -75 0 -75 0 -75
-150 0 -150 0 -150 150 -150 150 0 150 0 150 -150 0 -150 0 -150 150 -150 150
0 150 0 150 -75 0 -75 0 -75 -150 -75 -150 0 -150 0 -150 -150 0 -150 0 -150
-75 -150 -75 0 -75 0 -75 150 0 150 0 150 75 150 75 0 75 0 75 75 0 75 0 75
-75 75 -75 0 -75 0 -75 75 0 75 0 75 -75 75 -75 0 -75 0 -75 -75 0 -75 0 -75
-75 -75 -75 0 -75 0 -75 -75 0 -75 0 -75 -75 -75 -75 0 -75 0 -75 75 0 75 0
75 75 75 75 0 75 0 75 75 0 75 0 75 -75 75 -75 0 -75 0 -75 225 0 225 0 225
-75 225 -75 0 -75 0 -75 75 0 75 0 75 -75 75 -75 0 -75 0 -75 -75 0 -75 0 -75
-75 -75 -75 0 -75 0 -75 75 0 75 0 75 -75 75 -75 0 -75 0 -75 150 0 150 0 150
300 150 300 0 300 0 300 150 0 150 0 150 75 150 75 0 75 0 75 75 0 75 0 75
225 75 225 0 225 0 225 -75z m-2400 -750 c0 -75 0 -75 -75 -75 -75 0 -75 0
-75 75 0 75 0 75 75 75 75 0 75 0 75 -75z m150 -300 c0 -75 0 -75 -75 -75 -75
0 -75 0 -75 75 0 75 0 75 75 75 75 0 75 0 75 -75z m3000 -150 c0 -75 0 -75 75
-75 75 0 75 0 75 -150 0 -150 0 -150 -225 -150 -225 0 -225 0 -225 75 0 75 0
75 75 75 75 0 75 0 75 150 0 150 0 150 75 150 75 0 75 0 75 -75z m-3150 -150
c0 -75 0 -75 -75 -75 -75 0 -75 0 -75 75 0 75 0 75 75 75 75 0 75 0 75 -75z
m3000 -600 c0 -225 0 -225 -225 -225 -225 0 -225 0 -225 225 0 225 0 225 225
225 225 0 225 0 225 -225z m450 -75 c0 -150 0 -150 -75 -150 -75 0 -75 0 -75
-75 0 -75 0 -75 150 -75 150 0 150 0 150 -150 0 -150 0 -150 -75 -150 -75 0
-75 0 -75 75 0 75 0 75 -75 75 -75 0 -75 0 -75 -75 0 -75 0 -75 -150 -75 -150
0 -150 0 -150 75 0 75 0 75 150 75 150 0 150 0 150 75 0 75 0 75 -75 75 -75 0
-75 0 -75 75 0 75 0 75 75 75 75 0 75 0 75 150 0 150 0 150 75 150 75 0 75 0
75 -150z m-2550 -525 c0 -75 0 -75 -75 -75 -75 0 -75 0 -75 75 0 75 0 75 75
75 75 0 75 0 75 -75z m900 0 c0 -75 0 -75 -150 -75 -150 0 -150 0 -150 75 0
75 0 75 150 75 150 0 150 0 150 -75z"/>
<path d="M2920 4355 c0 -75 0 -75 150 -75 150 0 150 0 150 75 0 75 0 75 -150
75 -150 0 -150 0 -150 -75z"/>
<path d="M2470 4205 c0 -75 0 -75 75 -75 75 0 75 0 75 75 0 75 0 75 -75 75
-75 0 -75 0 -75 -75z"/>
<path d="M2920 3905 c0 -75 0 -75 75 -75 75 0 75 0 75 75 0 75 0 75 -75 75
-75 0 -75 0 -75 -75z"/>
<path d="M3670 3305 c0 -75 0 -75 -75 -75 -75 0 -75 0 -75 -75 0 -75 0 -75 75
-75 75 0 75 0 75 75 0 75 0 75 75 75 75 0 75 0 75 75 0 75 0 75 -75 75 -75 0
-75 0 -75 -75z"/>
<path d="M3220 3155 c0 -75 0 -75 -75 -75 -75 0 -75 0 -75 -75 0 -75 0 -75 75
-75 75 0 75 0 75 75 0 75 0 75 75 75 75 0 75 0 75 75 0 75 0 75 -75 75 -75 0
-75 0 -75 -75z"/>
<path d="M2470 2855 c0 -75 0 -75 75 -75 75 0 75 0 75 75 0 75 0 75 -75 75
-75 0 -75 0 -75 -75z"/>
<path d="M2920 2705 c0 -75 0 -75 75 -75 75 0 75 0 75 75 0 75 0 75 -75 75
-75 0 -75 0 -75 -75z"/>
<path d="M3070 2255 c0 -75 0 -75 75 -75 75 0 75 0 75 75 0 75 0 75 -75 75
-75 0 -75 0 -75 -75z"/>
<path d="M3820 1505 c0 -75 0 -75 75 -75 75 0 75 0 75 75 0 75 0 75 -75 75
-75 0 -75 0 -75 -75z"/>
<path d="M3820 4355 c0 -525 0 -525 525 -525 525 0 525 0 525 525 0 525 0 525
-525 525 -525 0 -525 0 -525 -525z m900 0 c0 -375 0 -375 -375 -375 -375 0
-375 0 -375 375 0 375 0 375 375 375 375 0 375 0 375 -375z"/>
<path d="M4120 4355 c0 -225 0 -225 225 -225 225 0 225 0 225 225 0 225 0 225
-225 225 -225 0 -225 0 -225 -225z"/>
<path d="M1420 3605 c0 -75 0 -75 75 -75 75 0 75 0 75 75 0 75 0 75 -75 75
-75 0 -75 0 -75 -75z"/>
<path d="M4720 3530 c0 -150 0 -150 -150 -150 -150 0 -150 0 -150 -75 0 -75 0
-75 150 -75 150 0 150 0 150 -75 0 -75 0 -75 75 -75 75 0 75 0 75 75 0 75 0
75 -75 75 -75 0 -75 0 -75 75 0 75 0 75 75 75 75 0 75 0 75 150 0 150 0 150
-75 150 -75 0 -75 0 -75 -150z"/>
<path d="M520 2105 c0 -75 0 -75 75 -75 75 0 75 0 75 75 0 75 0 75 -75 75 -75
0 -75 0 -75 -75z"/>
<path d="M1720 1655 c0 -75 0 -75 75 -75 75 0 75 0 75 75 0 75 0 75 -75 75
-75 0 -75 0 -75 -75z"/>
<path d="M520 1055 c0 -525 0 -525 525 -525 525 0 525 0 525 525 0 525 0 525
-525 525 -525 0 -525 0 -525 -525z m900 0 c0 -375 0 -375 -375 -375 -375 0
-375 0 -375 375 0 375 0 375 375 375 375 0 375 0 375 -375z"/>
<path d="M820 1055 c0 -225 0 -225 225 -225 225 0 225 0 225 225 0 225 0 225
-225 225 -225 0 -225 0 -225 -225z"/>
</g>
</g></svg>
